<svg width="25" height="28" viewBox="0 0 25 28" fill="none" xmlns="http://www.w3.org/2000/svg">
<path d="M20.1927 14.8903C20.1601 11.353 23.1634 9.63202 23.3007 9.5519C21.5998 7.13402 18.9634 6.80366 18.037 6.77732C15.8228 6.55013 13.675 8.06913 12.5471 8.06913C11.3966 8.06913 9.65967 6.79927 7.78766 6.83659C5.3787 6.87281 3.12508 8.23266 1.88908 10.3443C-0.661722 14.65 1.24068 20.9773 3.68454 24.4576C4.90704 26.1621 6.33553 28.0652 8.20529 27.9983C10.0345 27.9247 10.7178 26.8612 12.9253 26.8612C15.1125 26.8612 15.7541 27.9983 17.661 27.9555C19.6242 27.9247 20.8602 26.2433 22.0399 24.5235C23.4527 22.5698 24.02 20.6459 24.0425 20.5471C23.9964 20.5317 20.2298 19.1301 20.1927 14.8903Z" fill="black"/>
<path d="M16.5905 4.48785C17.5744 3.28823 18.2475 1.65619 18.0606 0C16.6367 0.0614623 14.8558 0.960349 13.8303 2.13362C12.923 3.16751 12.1125 4.86211 12.3219 6.45574C13.9215 6.57208 15.5639 5.6688 16.5905 4.48785Z" fill="black"/>
</svg>
