<svg width="18" height="18" viewBox="0 0 18 18" fill="none" xmlns="http://www.w3.org/2000/svg">
<path d="M9 16.421V3.42794M9 16.421C9 16.4797 9.06354 16.5178 9.11755 16.4916L10.4734 15.8332C11.9066 15.1374 13.5934 15.1374 15.0266 15.8332C15.7035 16.1619 16.5 15.6839 16.5 14.9489V3.42794C16.5 3.09081 16.3366 2.77336 16.0588 2.57108C14.098 1.14297 11.402 1.14297 9.44118 2.57108C9.16345 2.77336 9 3.09081 9 3.42794M9 16.421C9 16.4797 8.93646 16.5178 8.88245 16.4916L7.52657 15.8332C6.09344 15.1374 4.40656 15.1374 2.97343 15.8332C2.29648 16.1619 1.5 15.6839 1.5 14.9489V3.42794C1.5 3.09081 1.66345 2.77336 1.94118 2.57108C3.90196 1.14297 6.59804 1.14297 8.55882 2.57108C8.83655 2.77336 9 3.09081 9 3.42794" stroke="#757575" stroke-width="1.5" stroke-linecap="round"/>
</svg>
