<svg width="32" height="32" viewBox="0 0 32 32" fill="none" xmlns="http://www.w3.org/2000/svg">
<path d="M0.242188 16C0.242188 24.8366 7.23456 32 15.8601 32C24.4856 32 31.478 24.8366 31.478 16C31.478 7.16344 24.4856 0 15.8601 0C7.23456 0 0.242188 7.16344 0.242188 16Z" fill="#1877F2"/>
<path d="M23.6687 16C23.6687 11.6 20.1547 8 15.8597 8C11.5648 8 8.05078 11.6 8.05078 16C8.05078 20 10.8815 23.3 14.5908 23.9V18.3H12.6385V16H14.5908V14.2C14.5908 12.2 15.7621 11.1 17.5191 11.1C18.3976 11.1 19.2762 11.3 19.2762 11.3V13.3H18.3C17.3239 13.3 17.0311 13.9 17.0311 14.5V16H19.1785L18.7881 18.3H16.9335V24C20.8379 23.4 23.6687 20 23.6687 16Z" fill="white"/>
</svg>
