<svg width="18" height="18" viewBox="0 0 18 18" fill="none" xmlns="http://www.w3.org/2000/svg">
<path d="M1.88002 5.0333L2.52314 5.41917L2.52314 5.41917L1.88002 5.0333ZM3.22319 2.79468L3.86631 3.18055L3.86631 3.18055L3.22319 2.79468ZM14.7768 2.79468L14.1337 3.18055L14.1337 3.18055L14.7768 2.79468ZM16.12 5.0333L15.4769 5.41917L16.12 5.0333ZM13.5634 1.57899L13.3352 2.29345L13.3352 2.29345L13.5634 1.57899ZM14.1569 1.91505L14.6522 1.35182L14.6522 1.35182L14.1569 1.91505ZM3.84309 1.91505L4.33834 2.47828L4.33834 2.47828L3.84309 1.91505ZM4.43663 1.57899L4.20847 0.864541L4.20847 0.864541L4.43663 1.57899ZM16.4781 5.85928L15.738 5.98034L15.738 5.98034L16.4781 5.85928ZM16.3822 5.51275L17.0791 5.23575L17.0791 5.23574L16.3822 5.51275ZM15.59 16.3183L15.2495 15.6501L15.2495 15.6501L15.59 16.3183ZM16.3183 15.59L15.6501 15.2495L15.6501 15.2495L16.3183 15.59ZM1.68166 15.59L1.0134 15.9305L1.0134 15.9305L1.68166 15.59ZM2.41002 16.3183L2.75051 15.6501L2.75051 15.6501L2.41002 16.3183ZM1.52186 5.85928L0.781691 5.73822L0.781691 5.73822L1.52186 5.85928ZM1.61784 5.51275L0.920867 5.23575L0.920867 5.23575L1.61784 5.51275ZM2.33333 4.91667C1.91912 4.91667 1.58333 5.25245 1.58333 5.66667C1.58333 6.08088 1.91912 6.41667 2.33333 6.41667V4.91667ZM15.6667 6.41667C16.0809 6.41667 16.4167 6.08088 16.4167 5.66667C16.4167 5.25245 16.0809 4.91667 15.6667 4.91667V6.41667ZM7.33333 8.25C6.91912 8.25 6.58333 8.58579 6.58333 9C6.58333 9.41421 6.91912 9.75 7.33333 9.75V8.25ZM10.6667 9.75C11.0809 9.75 11.4167 9.41421 11.4167 9C11.4167 8.58579 11.0809 8.25 10.6667 8.25V9.75ZM8.25 5.66667C8.25 6.08088 8.58579 6.41667 9 6.41667C9.41421 6.41667 9.75 6.08088 9.75 5.66667H8.25ZM9.75 1.5C9.75 1.08579 9.41421 0.75 9 0.75C8.58579 0.75 8.25 1.08579 8.25 1.5H9.75ZM0.75 6.40529V13.8333H2.25V6.40529H0.75ZM4.16667 17.25H13.8333V15.75H4.16667V17.25ZM17.25 13.8333V6.40529H15.75V13.8333H17.25ZM2.52314 5.41917L3.86631 3.18055L2.58007 2.40881L1.2369 4.64743L2.52314 5.41917ZM5.50984 2.25H12.4902V0.75H5.50984V2.25ZM14.1337 3.18055L15.4769 5.41917L16.7631 4.64743L15.4199 2.40881L14.1337 3.18055ZM12.4902 2.25C13.0903 2.25 13.2256 2.25843 13.3352 2.29345L13.7915 0.864541C13.4065 0.741574 12.9912 0.75 12.4902 0.75V2.25ZM15.4199 2.40881C15.1622 1.97919 14.9557 1.61873 14.6522 1.35182L13.6617 2.47828C13.7481 2.55429 13.8249 2.66594 14.1337 3.18055L15.4199 2.40881ZM13.3352 2.29345C13.4556 2.33189 13.5667 2.39482 13.6617 2.47828L14.6522 1.35182C14.4019 1.1318 14.1089 0.965902 13.7915 0.864541L13.3352 2.29345ZM3.86631 3.18055C4.17508 2.66594 4.25189 2.55429 4.33834 2.47828L3.34784 1.35182C3.04429 1.61873 2.83784 1.97919 2.58007 2.40881L3.86631 3.18055ZM5.50984 0.75C5.00883 0.75 4.59352 0.741574 4.20847 0.864541L4.66479 2.29345C4.77445 2.25843 4.90971 2.25 5.50984 2.25V0.75ZM4.33834 2.47828C4.43325 2.39482 4.5444 2.33189 4.66479 2.29345L4.20847 0.864541C3.89107 0.965902 3.59806 1.1318 3.34784 1.35182L4.33834 2.47828ZM17.25 6.40529C17.25 6.15393 17.2523 5.94577 17.2183 5.73821L15.738 5.98034C15.7477 6.04004 15.75 6.1068 15.75 6.40529H17.25ZM15.4769 5.41917C15.6304 5.67512 15.6628 5.73354 15.6852 5.78975L17.0791 5.23574C17.0015 5.0403 16.8924 4.86297 16.7631 4.64743L15.4769 5.41917ZM17.2183 5.73822C17.1902 5.5662 17.1435 5.39773 17.0791 5.23575L15.6852 5.78974C15.7096 5.85119 15.7273 5.91509 15.738 5.98034L17.2183 5.73822ZM13.8333 17.25C14.2877 17.25 14.6735 17.2506 14.9891 17.2248C15.3134 17.1983 15.6289 17.1403 15.9305 16.9866L15.2495 15.6501C15.1946 15.6781 15.0985 15.7109 14.8669 15.7298C14.6266 15.7494 14.3124 15.75 13.8333 15.75V17.25ZM15.75 13.8333C15.75 14.3124 15.7494 14.6266 15.7298 14.8669C15.7109 15.0985 15.6781 15.1946 15.6501 15.2495L16.9866 15.9305C17.1403 15.6289 17.1983 15.3134 17.2248 14.9891C17.2506 14.6735 17.25 14.2877 17.25 13.8333H15.75ZM15.9305 16.9866C16.3852 16.7549 16.7549 16.3852 16.9866 15.9305L15.6501 15.2495C15.5622 15.422 15.422 15.5622 15.2495 15.6501L15.9305 16.9866ZM0.75 13.8333C0.75 14.2877 0.749417 14.6735 0.775198 14.9891C0.801694 15.3134 0.859723 15.6289 1.0134 15.9305L2.34991 15.2495C2.32193 15.1946 2.28913 15.0985 2.27022 14.8669C2.25058 14.6266 2.25 14.3124 2.25 13.8333H0.75ZM4.16667 15.75C3.68758 15.75 3.37337 15.7494 3.13308 15.7298C2.90154 15.7109 2.80542 15.6781 2.75051 15.6501L2.06952 16.9866C2.37113 17.1403 2.68663 17.1983 3.01093 17.2248C3.32647 17.2506 3.71233 17.25 4.16667 17.25V15.75ZM1.0134 15.9305C1.24509 16.3852 1.6148 16.7549 2.06952 16.9866L2.75051 15.6501C2.57803 15.5622 2.43779 15.422 2.34991 15.2495L1.0134 15.9305ZM2.25 6.40529C2.25 6.1068 2.25226 6.04004 2.26202 5.98034L0.781691 5.73822C0.747743 5.94577 0.75 6.15393 0.75 6.40529H2.25ZM1.2369 4.64743C1.10758 4.86297 0.998543 5.0403 0.920867 5.23575L2.31481 5.78975C2.33715 5.73354 2.36957 5.67513 2.52314 5.41917L1.2369 4.64743ZM2.26202 5.98034C2.27269 5.91509 2.29039 5.85119 2.31481 5.78975L0.920867 5.23575C0.856491 5.39773 0.809827 5.5662 0.781691 5.73822L2.26202 5.98034ZM2.33333 6.41667H15.6667V4.91667H2.33333V6.41667ZM7.33333 9.75H10.6667V8.25H7.33333V9.75ZM9.75 5.66667V1.5H8.25V5.66667H9.75Z" fill="#757575"/>
</svg>
