<svg width="32" height="32" viewBox="0 0 32 32" fill="none" xmlns="http://www.w3.org/2000/svg">
<path d="M31.478 16C31.478 24.5719 24.6982 31.5 16.3601 31.5C8.02203 31.5 1.24219 24.5719 1.24219 16C1.24219 7.42813 8.02203 0.5 16.3601 0.5C24.6982 0.5 31.478 7.42813 31.478 16Z" fill="white" stroke="#DFDFE3"/>
<path fill-rule="evenodd" clip-rule="evenodd" d="M24.0034 16.1818C24.0034 15.6145 23.9538 15.069 23.8615 14.5454H16.5068V17.64H20.7095C20.5285 18.64 19.9783 19.4872 19.1512 20.0545V22.0618H21.675C23.1516 20.6691 24.0034 18.6181 24.0034 16.1818Z" fill="#4285F4"/>
<path fill-rule="evenodd" clip-rule="evenodd" d="M16.5057 24C18.6141 24 20.3818 23.2837 21.6738 22.0618L19.1501 20.0546C18.4509 20.5346 17.5564 20.8182 16.5057 20.8182C14.4718 20.8182 12.7503 19.4109 12.1363 17.52H9.52734V19.5928C10.8123 22.2073 13.4531 24 16.5057 24Z" fill="#34A853"/>
<path fill-rule="evenodd" clip-rule="evenodd" d="M12.1368 17.52C11.9806 17.04 11.8918 16.5272 11.8918 16C11.8918 15.4727 11.9806 14.96 12.1368 14.48V12.4072H9.52786C8.99898 13.4872 8.69727 14.709 8.69727 16C8.69727 17.2909 8.99898 18.5127 9.52786 19.5927L12.1368 17.52Z" fill="#FBBC05"/>
<path fill-rule="evenodd" clip-rule="evenodd" d="M16.5057 11.1818C17.6522 11.1818 18.6816 11.5855 19.4909 12.3782L21.7306 10.0836C20.3783 8.79273 18.6106 8 16.5057 8C13.4531 8 10.8123 9.79273 9.52734 12.4073L12.1363 14.48C12.7503 12.5891 14.4718 11.1818 16.5057 11.1818Z" fill="#EA4335"/>
</svg>
