<svg width="16" height="17" viewBox="0 0 16 17" fill="none" xmlns="http://www.w3.org/2000/svg">
<path d="M5.50016 16.0132V10.1799C5.50016 9.71966 5.87326 9.34657 6.3335 9.34657H9.66683C10.1271 9.34657 10.5002 9.71966 10.5002 10.1799V16.0132M5.50016 16.0132H10.5002M5.50016 16.0132H4.66683M4.66683 16.0132H3.00016C2.07969 16.0132 1.3335 15.267 1.3335 14.3466V8.04737C1.3335 7.0476 1.78225 6.10061 2.55604 5.46752L6.94477 1.87674C7.55871 1.37442 8.44162 1.37442 9.05556 1.87674L13.4443 5.46752C14.2181 6.10061 14.6668 7.0476 14.6668 8.04737V14.3466C14.6668 15.267 13.9206 16.0132 13.0002 16.0132H11.3335M4.66683 16.0132H11.3335M11.3335 16.0132H10.5002" stroke="#757575" stroke-width="1.5" stroke-linecap="round"/>
</svg>
