<svg width="20" height="15" viewBox="0 0 20 15" fill="none" xmlns="http://www.w3.org/2000/svg">
<path d="M1.84816 9.59015L1.1799 9.93064H1.1799L1.84816 9.59015ZM2.57652 10.3185L2.91701 9.65025L2.91701 9.65025L2.57652 10.3185ZM15.6515 9.59015L16.3198 9.93064V9.93064L15.6515 9.59015ZM14.9232 10.3185L14.5827 9.65025H14.5827L14.9232 10.3185ZM14.9232 1.51515L14.5827 2.18341V2.18341L14.9232 1.51515ZM15.6515 2.24351L16.3198 1.90302V1.90302L15.6515 2.24351ZM2.57652 1.51515L2.91701 2.18341L2.91701 2.18341L2.57652 1.51515ZM1.84816 2.24351L2.51641 2.584L2.51641 2.584L1.84816 2.24351ZM2.71694 10.3788L2.96856 9.67225L2.96856 9.67224L2.71694 10.3788ZM4.58317 13.0002L4.09508 12.4307L4.07321 12.4495L4.05284 12.4698L4.58317 13.0002ZM7.31259 10.6607L7.80069 11.2301L7.80069 11.2301L7.31259 10.6607ZM3.18833 10.5764L3.67762 10.0079L3.67762 10.0079L3.18833 10.5764ZM3.30518 10.742L2.60556 11.0122L2.60556 11.0123L3.30518 10.742ZM7.56606 10.5095L7.7243 11.2427L7.72431 11.2427L7.56606 10.5095ZM7.45566 10.5504L7.0987 9.89078L7.0987 9.89078L7.45566 10.5504ZM4.99984 3.91683C4.58562 3.91683 4.24984 4.25262 4.24984 4.66683C4.24984 5.08104 4.58562 5.41683 4.99984 5.41683V3.91683ZM12.4998 5.41683C12.9141 5.41683 13.2498 5.08104 13.2498 4.66683C13.2498 4.25262 12.9141 3.91683 12.4998 3.91683V5.41683ZM4.99984 6.41683C4.58562 6.41683 4.24984 6.75262 4.24984 7.16683C4.24984 7.58104 4.58562 7.91683 4.99984 7.91683V6.41683ZM12.4998 7.91683C12.9141 7.91683 13.2498 7.58104 13.2498 7.16683C13.2498 6.75262 12.9141 6.41683 12.4998 6.41683V7.91683ZM8.33317 12.2502C7.91896 12.2502 7.58317 12.5859 7.58317 13.0002C7.58317 13.4144 7.91896 13.7502 8.33317 13.7502V12.2502ZM19.0832 4.66683C19.0832 4.25262 18.7474 3.91683 18.3332 3.91683C17.919 3.91683 17.5832 4.25262 17.5832 4.66683H19.0832ZM4.33317 2.0835H13.1665V0.583496H4.33317V2.0835ZM15.0832 4.00016V7.8335H16.5832V4.00016H15.0832ZM2.4165 7.8335V4.00016H0.916504V7.8335H2.4165ZM0.916504 7.8335C0.916504 8.28783 0.915921 8.67369 0.941702 8.98923C0.968198 9.31353 1.02623 9.62903 1.1799 9.93064L2.51641 9.24965C2.48844 9.19475 2.45564 9.09863 2.43672 8.86709C2.41709 8.62679 2.4165 8.31258 2.4165 7.8335H0.916504ZM2.91701 9.65025C2.74453 9.56237 2.6043 9.42214 2.51641 9.24965L1.1799 9.93064C1.4116 10.3854 1.7813 10.7551 2.23603 10.9868L2.91701 9.65025ZM15.0832 7.8335C15.0832 8.31258 15.0826 8.62679 15.063 8.86709C15.044 9.09863 15.0112 9.19475 14.9833 9.24965L16.3198 9.93064C16.4734 9.62903 16.5315 9.31353 16.558 8.98923C16.5838 8.67369 16.5832 8.28783 16.5832 7.8335H15.0832ZM13.1665 11.2502C13.6208 11.2502 14.0067 11.2507 14.3222 11.225C14.6465 11.1985 14.962 11.1404 15.2636 10.9868L14.5827 9.65025C14.5278 9.67823 14.4316 9.71103 14.2001 9.72995C13.9598 9.74958 13.6456 9.75016 13.1665 9.75016V11.2502ZM14.9833 9.24965C14.8954 9.42214 14.7551 9.56237 14.5827 9.65025L15.2636 10.9868C15.7184 10.7551 16.0881 10.3854 16.3198 9.93064L14.9833 9.24965ZM13.1665 2.0835C13.6456 2.0835 13.9598 2.08408 14.2001 2.10371C14.4316 2.12263 14.5278 2.15543 14.5827 2.18341L15.2636 0.846897C14.962 0.693219 14.6465 0.63519 14.3222 0.608694C14.0067 0.582913 13.6208 0.583496 13.1665 0.583496V2.0835ZM16.5832 4.00016C16.5832 3.54583 16.5838 3.15997 16.558 2.84443C16.5315 2.52012 16.4734 2.20463 16.3198 1.90302L14.9833 2.584C15.0112 2.63891 15.044 2.73503 15.063 2.96657C15.0826 3.20687 15.0832 3.52108 15.0832 4.00016H16.5832ZM14.5827 2.18341C14.7551 2.27129 14.8954 2.41152 14.9833 2.58401L16.3198 1.90302C16.0881 1.44829 15.7184 1.07859 15.2636 0.846897L14.5827 2.18341ZM4.33317 0.583496C3.87884 0.583496 3.49298 0.582913 3.17743 0.608694C2.85313 0.63519 2.53764 0.693219 2.23603 0.846897L2.91701 2.18341C2.97192 2.15543 3.06804 2.12263 3.29958 2.10371C3.53988 2.08408 3.85408 2.0835 4.33317 2.0835V0.583496ZM2.4165 4.00016C2.4165 3.52108 2.41709 3.20687 2.43672 2.96657C2.45564 2.73503 2.48844 2.63891 2.51641 2.584L1.1799 1.90302C1.02623 2.20463 0.968198 2.52012 0.941702 2.84443C0.915921 3.15997 0.916504 3.54583 0.916504 4.00016H2.4165ZM2.23603 0.846897C1.7813 1.07859 1.4116 1.44829 1.1799 1.90302L2.51641 2.584C2.6043 2.41152 2.74453 2.27129 2.91701 2.18341L2.23603 0.846897ZM13.1665 9.75016H7.74645V11.2502H13.1665V9.75016ZM2.96856 9.67224C2.94867 9.66516 2.93188 9.65783 2.91701 9.65025L2.23602 10.9868C2.31082 11.0249 2.38717 11.0575 2.46533 11.0853L2.96856 9.67224ZM2.58317 11.1114V13.0002H4.08317V11.1114H2.58317ZM5.07126 13.5696L7.80069 11.2301L6.8245 10.0912L4.09508 12.4307L5.07126 13.5696ZM2.58317 13.0002C2.58317 13.4017 2.79465 14.0292 3.46377 14.1965C4.0798 14.3505 4.65788 13.9861 5.1135 13.5305L4.05284 12.4698C3.88404 12.6386 3.77348 12.7058 3.7238 12.7285C3.67707 12.7499 3.72391 12.7154 3.82757 12.7413C3.93858 12.7691 4.01377 12.8411 4.05004 12.9001C4.08086 12.9501 4.08317 12.9863 4.08317 13.0002H2.58317ZM2.46533 11.0853C2.60952 11.1367 2.69451 11.1671 2.7522 11.1905C2.77953 11.2015 2.78656 11.2054 2.78241 11.2032C2.78039 11.2022 2.74467 11.1841 2.69904 11.1448L3.67762 10.0079C3.54486 9.89366 3.38987 9.83037 3.31518 9.80012C3.22065 9.76185 3.09939 9.71883 2.96856 9.67225L2.46533 11.0853ZM4.08317 11.1114C4.08317 11.0216 4.08349 10.9211 4.07834 10.8349C4.07306 10.7465 4.05978 10.6141 4.00481 10.4718L2.60556 11.0123C2.59158 10.9761 2.58526 10.9471 2.58252 10.9314C2.58003 10.9171 2.5803 10.9125 2.58101 10.9244C2.58172 10.9362 2.5824 10.9558 2.58278 10.9889C2.58316 11.022 2.58317 11.0606 2.58317 11.1114H4.08317ZM2.69904 11.1448C2.71223 11.1561 2.6808 11.1313 2.64649 11.0826C2.61218 11.034 2.59929 10.996 2.60556 11.0122L4.00481 10.4718C3.98062 10.4092 3.94134 10.316 3.87223 10.218C3.80312 10.12 3.72849 10.0517 3.67762 10.0079L2.69904 11.1448ZM7.74645 9.75016C7.6869 9.75016 7.5476 9.74625 7.40781 9.77643L7.72431 11.2427C7.70798 11.2462 7.69377 11.2483 7.68295 11.2495C7.67292 11.2506 7.66747 11.2508 7.66941 11.2507C7.67174 11.2506 7.6781 11.2504 7.69204 11.2503C7.70612 11.2502 7.72275 11.2502 7.74645 11.2502V9.75016ZM7.80069 11.2301C7.81868 11.2147 7.83131 11.2039 7.84207 11.1948C7.85273 11.1858 7.85769 11.1818 7.85952 11.1804C7.86105 11.1792 7.8568 11.1826 7.84847 11.1883C7.83947 11.1944 7.82731 11.202 7.81262 11.21L7.0987 9.89078C6.97294 9.95884 6.86972 10.0525 6.82449 10.0912L7.80069 11.2301ZM7.40782 9.77643C7.29989 9.79972 7.19581 9.83823 7.0987 9.89078L7.81262 11.21C7.78488 11.225 7.75514 11.236 7.7243 11.2427L7.40782 9.77643ZM4.99984 5.41683H12.4998V3.91683H4.99984V5.41683ZM4.99984 7.91683H12.4998V6.41683H4.99984V7.91683ZM8.33317 13.7502H16.6665V12.2502H8.33317V13.7502ZM19.0832 11.3335V4.66683H17.5832V11.3335H19.0832ZM16.6665 13.7502C18.0012 13.7502 19.0832 12.6682 19.0832 11.3335H17.5832C17.5832 11.8398 17.1728 12.2502 16.6665 12.2502V13.7502Z" fill="#757575"/>
</svg>
