<svg width="18" height="20" viewBox="0 0 18 20" fill="none" xmlns="http://www.w3.org/2000/svg">
<path d="M6.50011 3.13175C6.50011 2.32252 7.15613 1.6665 7.96536 1.6665H10.0349C10.8441 1.6665 11.5001 2.32252 11.5001 3.13176C11.5001 4.25972 12.7212 4.96468 13.698 4.4007C14.3989 3.99607 15.295 4.23619 15.6997 4.93702L16.7344 6.72921C17.139 7.43004 16.8989 8.32619 16.198 8.73081C15.2212 9.2948 15.2212 10.7048 16.198 11.2687C16.8989 11.6734 17.139 12.5695 16.7344 13.2703L15.6997 15.0625C15.295 15.7634 14.3989 16.0035 13.698 15.5989C12.7212 15.0349 11.5001 15.7399 11.5001 16.8679C11.5001 17.6771 10.8441 18.3332 10.0348 18.3332H7.9654C7.15614 18.3332 6.50011 17.6771 6.50011 16.8679C6.50011 15.7399 5.27905 15.0349 4.30221 15.5989C3.60138 16.0035 2.70524 15.7634 2.30062 15.0626L1.26589 13.2704C0.861266 12.5695 1.10139 11.6734 1.80222 11.2687C2.77907 10.7048 2.77907 9.2948 1.80222 8.73081C1.10139 8.32619 0.861266 7.43004 1.26589 6.72921L2.30062 4.93701C2.70524 4.23618 3.60139 3.99607 4.30222 4.40069C5.27905 4.96466 6.50011 4.2597 6.50011 3.13175Z" stroke="#757575" stroke-width="1.8"/>
<path d="M12.3334 9.99984C12.3334 11.8408 10.8411 13.3332 9.00011 13.3332C7.15916 13.3332 5.66678 11.8408 5.66678 9.99984C5.66678 8.15889 7.15916 6.6665 9.00011 6.6665C10.8411 6.6665 12.3334 8.15889 12.3334 9.99984Z" stroke="#757575" stroke-width="1.8"/>
</svg>
