<svg width="23" height="23" viewBox="0 0 23 23" fill="none" xmlns="http://www.w3.org/2000/svg">
<path fill-rule="evenodd" clip-rule="evenodd" d="M11.3125 22.9985L11.5 23C11.2461 23 10.9923 22.9917 10.7389 22.9752C10.4254 22.9547 10.1129 22.9214 9.80203 22.8755C9.44095 22.822 9.08263 22.7513 8.72828 22.6637C8.37897 22.5773 8.03395 22.4744 7.69436 22.3554L7.69247 22.3547C7.13324 22.1585 6.59011 21.9192 6.06801 21.6388C5.69745 21.4399 5.33811 21.2207 4.99161 20.9823C4.60194 20.7144 4.22913 20.4228 3.87526 20.1091C3.75163 19.9995 3.63034 19.8873 3.5115 19.7725C1.34636 17.6812 0 14.7478 0 11.5C0 5.14874 5.14874 1.26355e-10 11.5 1.26355e-10C13.0102 -7.07896e-06 14.5056 0.297443 15.9008 0.875368C17.2961 1.45329 18.5638 2.30037 19.6317 3.36825C20.6996 4.43612 21.5467 5.70387 22.1246 7.09911C22.7025 8.49436 23 9.98977 23 11.5C23 14.7479 21.6535 17.6814 19.4883 19.7726C19.4883 19.7723 19.4883 19.7728 19.4883 19.7726C18.9436 20.2984 18.3486 20.7701 17.7119 21.1796L17.703 21.1852C17.5586 21.278 17.4121 21.3675 17.2637 21.4535L17.248 21.4627C16.9883 21.6128 16.7228 21.7527 16.4521 21.8821C16.3462 21.9326 16.2395 21.9815 16.1322 22.0289C16.0202 22.0782 15.9075 22.1257 15.7941 22.1715C15.6841 22.2157 15.5735 22.2582 15.4623 22.2992C15.3499 22.3403 15.2368 22.3798 15.1232 22.4176C15.0115 22.4545 14.8993 22.4898 14.7866 22.5235C14.6671 22.559 14.5472 22.5926 14.4266 22.6243C14.3094 22.655 14.1916 22.6839 14.0735 22.711C13.9555 22.7379 13.8372 22.7629 13.7185 22.7862C13.2347 22.8807 12.7454 22.944 12.2534 22.9757C12.1312 22.9836 12.0088 22.9896 11.8863 22.9936L11.8839 22.9937C11.6935 22.9999 11.503 23.0015 11.3125 22.9985ZM12.65 16.1H10.35C8.5181 16.1 6.91595 17.178 6.17943 18.7541L6.09615 18.9451L6.16822 18.9984C7.479 19.932 9.04503 20.5307 10.7413 20.6691C10.7919 20.6733 10.8427 20.677 10.8935 20.6803L10.7483 20.6697C10.7977 20.6737 10.8472 20.6773 10.8969 20.6805L10.8935 20.6803C10.9427 20.6835 10.9919 20.6864 11.0412 20.6888L10.8969 20.6805C10.9481 20.6839 10.9994 20.6868 11.0509 20.6892L11.0412 20.6888C11.0782 20.6906 11.1152 20.6921 11.1522 20.6935L11.5 20.7L11.6442 20.6989C11.6972 20.6981 11.7502 20.6968 11.8032 20.6951L11.6576 20.6986C11.7067 20.6978 11.7543 20.6967 11.8032 20.6951C11.8525 20.6936 11.9017 20.6915 11.9508 20.6891L11.8032 20.6951C11.8539 20.6934 11.9059 20.6913 11.9565 20.6888L11.9508 20.6891C12.002 20.6866 12.053 20.6838 12.1039 20.6805L11.9565 20.6888C12.0063 20.6864 12.0561 20.6836 12.1058 20.6804L12.1039 20.6805C12.1537 20.6773 12.2034 20.6736 12.253 20.6696L12.1058 20.6804C12.1565 20.6771 12.2071 20.6734 12.2576 20.6693L12.253 20.6696C12.3012 20.6657 12.3492 20.6614 12.3972 20.6568L12.2576 20.6693C12.3079 20.6652 12.3581 20.6606 12.4082 20.6557L12.3972 20.6568C14.0368 20.4981 15.5505 19.909 16.8239 19.0039L16.9027 18.9451L16.8206 18.7543C16.1163 17.2467 14.6198 16.1947 12.8876 16.106L12.65 16.1ZM11.5 2.30002C6.41899 2.30002 2.30002 6.41899 2.30002 11.5C2.30002 13.6942 3.06813 15.709 4.35012 17.29C5.53757 15.2054 7.77964 13.8 10.35 13.8H12.65C15.2204 13.8 17.4625 15.2055 18.6498 17.2899C19.9318 15.709 20.7 13.6942 20.7 11.5C20.7 6.41899 16.581 2.30002 11.5 2.30002ZM11.5 3.45C14.0405 3.45 16.1 5.50948 16.1 8.04998C16.1 10.5135 14.1634 12.5247 11.7296 12.6444L11.5 12.65C8.95948 12.65 6.89999 10.5905 6.89999 8.04998C6.89999 5.58646 8.83658 3.57522 11.2704 3.4556L11.5 3.45ZM11.5 5.75001C10.2297 5.75001 9.20001 6.77973 9.20001 8.04998C9.20001 9.32022 10.2297 10.35 11.5 10.35C12.7702 10.35 13.8 9.32022 13.8 8.04998C13.8 6.77973 12.7702 5.75001 11.5 5.75001Z" fill="#757575"/>
</svg>
