<svg width="24" height="24" viewBox="0 0 24 24" fill="none" xmlns="http://www.w3.org/2000/svg">
<path d="M2.57143 0C1.16229 0 0 1.15971 0 2.568V7.71429C0 9.10629 0.680571 10.3354 1.71429 11.1197V21.4286C1.71429 22.8377 2.87571 24 4.28571 24H19.7143C21.1243 24 22.2857 22.8377 22.2857 21.4286V11.1197C23.3194 10.3354 24 9.10543 24 7.71429V2.568C23.9959 1.88758 23.7236 1.23624 23.2422 0.755423C22.7607 0.274608 22.109 0.0031485 21.4286 0H2.57143ZM2.57143 1.71429H21.4286C21.9189 1.71429 22.2857 2.08114 22.2857 2.568V7.71429C22.2857 9.15429 21.1543 10.2857 19.7143 10.2857H18.8571C17.4171 10.2857 16.2857 9.15429 16.2857 7.71429C16.2694 6.58714 14.5877 6.58714 14.5714 7.71429C14.5714 9.15429 13.44 10.2857 12 10.2857C10.56 10.2857 9.42857 9.15429 9.42857 7.71429C9.41229 6.58714 7.73057 6.58714 7.71429 7.71429C7.71429 9.15429 6.58286 10.2857 5.14286 10.2857H4.28571C2.84571 10.2857 1.71429 9.15429 1.71429 7.71429V2.568C1.71181 2.45492 1.73232 2.34251 1.77456 2.23759C1.81681 2.13267 1.87991 2.03742 1.96005 1.9576C2.04019 1.87778 2.13569 1.81506 2.24078 1.77324C2.34587 1.73141 2.45836 1.71136 2.57143 1.71429ZM8.57143 10.1503C9.32314 11.2029 10.4829 11.94 11.8543 11.9897L11.8646 11.9914C11.949 12.004 12.0348 12.004 12.1191 11.9914C13.5026 11.9503 14.6717 11.2106 15.4286 10.1503C16.2069 11.2414 17.4206 12 18.8571 12H19.7143C20.0022 11.9998 20.2894 11.9705 20.5714 11.9126V21.4286C20.5714 21.9189 20.2037 22.2857 19.7143 22.2857H15.4286V18C15.4286 16.5909 14.2671 15.4286 12.8571 15.4286H11.1429C9.73286 15.4286 8.57143 16.5909 8.57143 18V22.2857H4.28571C3.79629 22.2857 3.42857 21.9189 3.42857 21.4286V11.9126C3.71061 11.9705 3.99779 11.9998 4.28571 12H5.14286C6.57943 12 7.79314 11.2414 8.57143 10.1503ZM11.1429 17.1429H12.8571C13.3466 17.1429 13.7143 17.5106 13.7143 18V22.2857H10.2857V18C10.2857 17.5106 10.6534 17.1429 11.1429 17.1429Z" fill="#757575"/>
</svg>
