<?xml version="1.0" encoding="UTF-8"?>
<!DOCTYPE svg PUBLIC "-//W3C//DTD SVG 1.1//EN" "http://www.w3.org/Graphics/SVG/1.1/DTD/svg11.dtd">
<!-- Creator: CorelDRAW -->
<svg xmlns="http://www.w3.org/2000/svg" xml:space="preserve" width="1024px" height="235px" version="1.1" style="shape-rendering:geometricPrecision; text-rendering:geometricPrecision; image-rendering:optimizeQuality; fill-rule:evenodd; clip-rule:evenodd"
viewBox="0 0 40.042 9.205"
 xmlns:xlink="http://www.w3.org/1999/xlink"
 xmlns:xodm="http://www.corel.com/coreldraw/odm/2003">
 <defs>
  <style type="text/css">
   <![CDATA[
    .fil2 {fill:none}
    .fil0 {fill:#8A00DE}
    .fil1 {fill:#FF0084;fill-rule:nonzero}
   ]]>
  </style>
   <clipPath id="id0">
    <path d="M0 0l40.042 0 0 9.205 -40.042 0 0 -9.205z"/>
   </clipPath>
 </defs>
 <g id="Layer_x0020_1">
  <metadata id="CorelCorpID_0Corel-Layer"/>
  <polygon class="fil0" points="0,0 40.042,0 40.042,9.205 0,9.205 "/>
  <g style="clip-path:url(#id0)">
   <g id="_105553497896160">
    <g>
     <path id="_1" class="fil1" d="M11.269 14.277c-0.02,0.023 -0.04,0.047 -0.061,0.072l-0.034 0.04c-1.752,2.061 -5.327,6.906 -8.054,4.311 -2.621,-2.493 3.334,-9.069 1.576,-10.691 -1.836,-1.694 -7.871,9.618 -12.652,8.165l0.454 -1.499c3.825,1.163 9.627,-11.17 13.258,-7.82 2.858,2.637 -3.029,9.309 -1.558,10.709 1.455,1.384 4.744,-2.941 5.851,-4.267l-0.001 -0.001c0.02,-0.023 0.041,-0.047 0.062,-0.071l0.034 -0.041c1.751,-2.06 5.326,-6.906 8.054,-4.311 2.621,2.494 -3.334,9.069 -1.576,10.691 1.836,1.694 7.871,-9.617 12.651,-8.164l-0.453 1.498c-3.825,-1.162 -9.628,11.17 -13.258,7.821 -2.858,-2.637 3.029,-9.31 1.557,-10.71 -1.454,-1.384 -4.743,2.942 -5.85,4.267l0 0.001z"/>
    </g>
    <g>
     <path class="fil1" d="M6.978 -3.253c-0.02,0.024 -0.04,0.048 -0.061,0.072l-0.034 0.04c-1.751,2.061 -5.326,6.906 -8.054,4.312 -2.621,-2.494 3.334,-9.069 1.576,-10.691 -1.836,-1.694 -7.871,9.617 -12.652,8.164l0.454 -1.498c3.825,1.162 9.627,-11.17 13.258,-7.821 2.858,2.637 -3.029,9.309 -1.557,10.71 1.454,1.384 4.743,-2.942 5.85,-4.268l0 0c0.02,-0.023 0.04,-0.047 0.061,-0.072l0.034 -0.04c1.751,-2.061 5.326,-6.906 8.054,-4.312 2.621,2.494 -3.334,9.07 -1.576,10.692 1.836,1.694 7.871,-9.618 12.652,-8.165l-0.454 1.499c-3.825,-1.163 -9.627,11.17 -13.258,7.82 -2.858,-2.637 3.029,-9.309 1.557,-10.709 -1.454,-1.384 -4.743,2.941 -5.85,4.267l0 0z"/>
    </g>
    <g>
     <path class="fil1" d="M33.351 14.403c-0.02,0.023 -0.04,0.047 -0.061,0.072l-0.034 0.04c-1.751,2.061 -5.326,6.906 -8.054,4.311 -2.621,-2.493 3.334,-9.069 1.576,-10.691 -1.836,-1.694 -7.871,9.618 -12.652,8.165l0.454 -1.499c3.825,1.163 9.627,-11.17 13.258,-7.82 2.858,2.637 -3.029,9.309 -1.557,10.709 1.454,1.384 4.743,-2.941 5.85,-4.267l0 0c0.02,-0.024 0.04,-0.048 0.061,-0.072l0.034 -0.041c1.751,-2.06 5.326,-6.906 8.054,-4.311 2.621,2.494 -3.334,9.069 -1.576,10.691 1.836,1.694 7.871,-9.617 12.652,-8.164l-0.454 1.498c-3.825,-1.162 -9.627,11.17 -13.258,7.821 -2.858,-2.637 3.029,-9.31 1.557,-10.71 -1.454,-1.384 -4.743,2.942 -5.85,4.267l0 0.001z"/>
    </g>
    <g>
     <path class="fil1" d="M35.241 -4.555c-0.02,0.024 -0.04,0.048 -0.061,0.072l-0.034 0.04c-1.752,2.061 -5.327,6.906 -8.054,4.312 -2.621,-2.494 3.334,-9.069 1.576,-10.692 -1.836,-1.693 -7.871,9.618 -12.652,8.165l0.454 -1.498c3.825,1.162 9.627,-11.17 13.258,-7.821 2.858,2.637 -3.029,9.309 -1.558,10.71 1.455,1.384 4.744,-2.942 5.851,-4.268l-0.001 0c0.02,-0.024 0.041,-0.048 0.062,-0.072l0.034 -0.04c1.751,-2.061 5.326,-6.906 8.054,-4.312 2.621,2.494 -3.334,9.069 -1.576,10.692 1.836,1.694 7.871,-9.618 12.651,-8.165l-0.453 1.499c-3.825,-1.163 -9.628,11.169 -13.258,7.82 -2.859,-2.637 3.029,-9.309 1.557,-10.71 -1.454,-1.384 -4.743,2.942 -5.85,4.268l0 0z"/>
    </g>
   </g>
  </g>
  <polygon class="fil2" points="0,0 40.042,0 40.042,9.205 0,9.205 "/>
 </g>
</svg>
