<svg width="60" height="33" viewBox="0 0 60 33" fill="none" xmlns="http://www.w3.org/2000/svg">
<path d="M58.5248 2.94087C58.2833 2.94087 58.07 2.89861 57.8854 2.81407C57.7007 2.72954 57.5463 2.61736 57.422 2.47753C57.2978 2.3377 57.2047 2.18325 57.1424 2.01418C57.0804 1.84512 57.0493 1.67605 57.0493 1.50698V1.42404C57.0493 1.24798 57.0814 1.07637 57.1452 0.908893C57.2091 0.741416 57.3041 0.588874 57.43 0.450633C57.5561 0.31271 57.7106 0.203071 57.8933 0.121715C58.076 0.0406777 58.2867 0 58.5248 0C58.7628 0 58.9735 0.0406777 59.1562 0.121715C59.3393 0.202753 59.4937 0.312392 59.6196 0.450633C59.7457 0.588556 59.8404 0.741416 59.9043 0.908893C59.9682 1.07637 60 1.24798 60 1.42404V1.50698C60 1.67605 59.9688 1.84512 59.9069 2.01418C59.8449 2.18325 59.7518 2.3377 59.6272 2.47753C59.5029 2.61736 59.3485 2.72954 59.1639 2.81407C58.9792 2.89861 58.766 2.94087 58.5245 2.94087H58.5248ZM58.5248 2.6717C58.7628 2.6717 58.971 2.61736 59.1486 2.50867C59.3266 2.39999 59.4645 2.25507 59.5627 2.07393C59.6612 1.89279 59.7102 1.69162 59.7102 1.47075C59.7102 1.2429 59.6609 1.03855 59.5627 0.857411C59.4642 0.676268 59.3263 0.532942 59.1486 0.427752C58.971 0.322562 58.7631 0.269808 58.5248 0.269808C58.2867 0.269808 58.0786 0.322562 57.9009 0.427752C57.7233 0.532942 57.5851 0.676268 57.4869 0.857411C57.3883 1.03855 57.3394 1.24321 57.3394 1.47075C57.3394 1.69162 57.3887 1.89279 57.4869 2.07393C57.5851 2.25507 57.7233 2.39999 57.9009 2.50867C58.0789 2.61736 58.2867 2.6717 58.5248 2.6717ZM57.9191 2.24713V0.632094H58.5197C58.7371 0.632094 58.9061 0.680399 59.0269 0.777009C59.1477 0.873618 59.208 1.01345 59.208 1.1965C59.208 1.43453 59.1063 1.59851 58.9026 1.68813L59.3011 2.24713H58.8715L58.5403 1.76058H58.5197H58.3023V2.24713H57.9191ZM58.5454 0.958152H58.302V1.43453H58.5454C58.7285 1.43453 58.82 1.35508 58.82 1.1965C58.82 1.0376 58.7285 0.958469 58.5454 0.958469V0.958152Z" fill="#9510C9"/>
<path fill-rule="evenodd" clip-rule="evenodd" d="M24.3607 4.73719C25.3255 8.26471 26.2904 11.7922 27.2549 15.3198H29.9618C28.8728 11.3378 27.7894 7.35391 26.6946 3.37385C26.4159 2.36135 25.5102 1.64886 24.4675 1.60913H24.2533C23.2106 1.64886 22.3049 2.36135 22.0265 3.37385C20.932 7.35391 19.8483 11.3378 18.7593 15.3198H21.4662C22.4311 11.7922 23.3959 8.26471 24.3604 4.73719H24.3607ZM42.5262 12.1669L44.8022 3.84291C45.2742 2.50595 46.4313 1.60913 47.8696 1.60913C49.8485 1.60913 51.3787 3.38878 51.0466 5.36801C50.8931 5.9715 50.7294 6.56959 50.5651 7.17054C50.1228 8.78748 49.6791 10.4035 49.2323 12.0191C49.1878 12.3846 49.4627 12.7072 49.8345 12.7072C50.1011 12.7072 50.3236 12.5406 50.4116 12.2915C51.3854 8.7306 52.3594 5.17002 53.3331 1.60913H56.042C54.9984 5.42585 53.949 9.27117 52.9028 13.0818C52.4894 14.4878 51.0367 15.417 49.5962 15.3115C47.6967 15.1713 46.3445 13.4251 46.6575 11.5615C47.247 9.41259 47.8216 7.26016 48.4095 5.11123C48.448 5.03718 48.4702 4.91388 48.4775 4.83125C48.4775 4.49503 48.2052 4.22268 47.8693 4.22268C47.609 4.22268 47.3869 4.38634 47.2998 4.61611L47.2922 4.63835L46.6578 6.9573L46.4484 7.72319L44.8559 13.5458C44.5687 14.5672 43.6823 15.28 42.6263 15.3204H42.4121C41.3643 15.2804 40.4631 14.5659 40.1834 13.5487L37.7872 4.78708L35.3917 13.5458C35.113 14.559 34.2139 15.28 33.162 15.3204H32.9478C31.9001 15.2804 30.9988 14.5659 30.7192 13.5487L27.4541 1.60945H30.1611L33.054 12.1869L35.4518 3.38116C35.7305 2.36771 36.6289 1.64949 37.6804 1.60945H37.8946C38.937 1.64917 39.843 2.36167 40.1214 3.37448L42.5265 12.1672L42.5262 12.1669ZM15.7157 12.1669C16.6739 8.6467 17.6406 5.12839 18.6032 1.60913H21.3102L18.0458 13.5455C17.7585 14.5669 16.8722 15.2797 15.8162 15.3201H15.602C14.5542 15.28 13.6529 14.5656 13.3733 13.5484L10.9771 4.78676L8.58156 13.5455C8.30285 14.5586 7.40413 15.2797 6.35191 15.3201H6.13772C5.08995 15.28 4.18868 14.5656 3.90902 13.5484L0.643677 1.60913H3.35065L6.24354 12.1866L8.64099 3.38084C8.91969 2.36739 9.8181 1.64917 10.8697 1.60913H11.0839C12.1266 1.64886 13.0323 2.36135 13.311 3.37416L15.7157 12.1669Z" fill="#FF0084"/>
<path d="M0 32.8758L4.56163 19.0583H9.5777L14.3097 32.8758H11.0917L9.97495 29.4499H4.20188L3.10422 32.8758H0ZM5.01607 26.8755H9.12357L7.40113 21.5944H6.70071L5.01607 26.8755Z" fill="#9510C9"/>
<path d="M15.8808 32.8758V24.9258H14.6503V22.7111H15.8808V22.4083C15.8808 20.0483 17.2248 18.8687 19.9127 18.8687H21.2376V21.1399H19.7802C19.0607 21.1399 18.7013 21.4994 18.7013 22.2188V22.7108H21.3889V24.9255H18.7013V32.8755H15.8808V32.8758Z" fill="#9510C9"/>
<path d="M22.8278 32.8759V22.5034H25.2316V26.0239C25.3451 24.8503 25.708 23.9481 26.3201 23.3172C26.9321 22.6864 27.7679 22.3708 28.8281 22.3708H29.2257V24.9831H28.4684C27.623 24.9831 26.9763 25.2103 26.5282 25.6645C26.0805 26.1186 25.8564 26.7621 25.8564 27.5951V32.8759H22.8278Z" fill="#9510C9"/>
<path d="M32.3865 21.4814C31.8186 21.4814 31.3991 21.333 31.1277 21.0365C30.8563 20.74 30.7209 20.3647 30.7209 19.9102C30.7209 19.4434 30.8566 19.0617 31.1277 18.7652C31.3991 18.4687 31.8186 18.3203 32.3865 18.3203C32.9544 18.3203 33.3739 18.4687 33.6453 18.7652C33.9167 19.0617 34.0524 19.4434 34.0524 19.9102C34.0524 20.3647 33.9167 20.74 33.6453 21.0365C33.3739 21.333 32.9544 21.4814 32.3865 21.4814ZM31.2129 32.8763V24.7372H29.8311V22.5038H34.2415V32.8763H31.2129Z" fill="#9510C9"/>
<path d="M41.5288 32.8759C40.6329 32.8759 39.8537 32.7275 39.1911 32.431C38.5285 32.1345 37.9765 31.7338 37.5348 31.2291C37.093 30.7245 36.7651 30.1534 36.5506 29.5162C36.336 28.879 36.2289 28.2196 36.2289 27.5382V27.1785C36.2289 26.2321 36.4276 25.349 36.8251 24.5287C37.2224 23.7085 37.8157 23.0459 38.6045 22.5412C39.3932 22.0366 40.3615 21.7839 41.5101 21.7839C42.4437 21.7839 43.2703 21.9638 43.9898 22.3236C44.709 22.6833 45.2832 23.1848 45.7123 23.8283C46.1413 24.4718 46.3812 25.2101 46.4318 26.043H43.4601C43.4095 25.5762 43.2204 25.1818 42.8922 24.8602C42.5639 24.5383 42.1034 24.3775 41.5104 24.3775C40.7407 24.3775 40.1728 24.652 39.8067 25.2009C39.4409 25.7497 39.2578 26.4724 39.2578 27.3682C39.2578 28.2139 39.4314 28.9108 39.7784 29.46C40.1254 30.0088 40.7089 30.2834 41.5291 30.2834C42.1348 30.2834 42.608 30.1257 42.9487 29.8102C43.2894 29.4946 43.4912 29.0783 43.5544 28.5609H46.5071C46.4565 29.419 46.2137 30.1728 45.7784 30.8227C45.343 31.4725 44.7563 31.9772 44.0181 32.3369C43.2799 32.6964 42.4504 32.8766 41.5291 32.8766L41.5288 32.8759Z" fill="#9510C9"/>
<path d="M51.3718 32.8759C50.2488 32.8759 49.3434 32.5858 48.6556 32.0051C47.9679 31.4245 47.6241 30.6046 47.6241 29.5445C47.6241 28.7875 47.8195 28.1659 48.2107 27.68C48.6019 27.194 49.1508 26.8343 49.8575 26.601C50.564 26.3675 51.3782 26.2508 52.2995 26.2508H54.1732V26.213C54.1732 25.1532 53.6431 24.6231 52.5833 24.6231C52.3055 24.6231 51.9397 24.6323 51.4853 24.6514C51.0312 24.6704 50.5608 24.6892 50.0752 24.7083C49.5893 24.727 49.1571 24.7493 48.7786 24.7744V22.219C49.2204 22.1812 49.7628 22.1465 50.4064 22.1147C51.0499 22.0833 51.6429 22.0674 52.1857 22.0674C53.7756 22.0674 54.9903 22.4049 55.8296 23.0799C56.6688 23.7549 57.0883 24.8119 57.0883 26.2505V32.6105H54.6845V30.6609C54.4573 31.38 54.0661 31.9292 53.5112 32.3077C52.956 32.6862 52.2429 32.8756 51.3725 32.8756L51.3718 32.8759ZM52.2804 30.775C52.7727 30.775 53.2017 30.6361 53.5675 30.3583C53.9336 30.0809 54.1354 29.5508 54.1732 28.7684V27.9355H52.2804C51.7503 27.9355 51.3436 28.068 51.0595 28.333C50.7757 28.5981 50.6336 28.9451 50.6336 29.3741C50.6336 29.7904 50.7757 30.1279 51.0595 30.3866C51.3432 30.6453 51.7503 30.7746 52.2804 30.7746V30.775Z" fill="#9510C9"/>
</svg>
